<svg width="306" height="64" viewBox="0 0 306 64" fill="none" xmlns="http://www.w3.org/2000/svg">
<path d="M84.5887 46.0973C83.1945 45.592 81.9926 44.8462 80.959 43.8598L79.9014 46.1454H74.9736V12.6071H82.1369V24.1554C84.132 22.8081 86.4637 22.1585 89.1078 22.1585C91.3914 22.1585 93.4346 22.6878 95.2374 23.7223C97.0403 24.7569 98.4585 26.2245 99.4681 28.1011C100.478 29.9777 101.006 32.143 101.006 34.5489C101.006 36.9548 100.502 39.0961 99.4681 40.9968C98.4585 42.8734 97.0162 44.341 95.2134 45.3755C93.3865 46.41 91.3433 46.9394 89.0597 46.9394C87.4732 46.8672 85.9589 46.6266 84.5887 46.0973ZM83.4109 38.7833C84.5647 39.9141 86.031 40.4915 87.7857 40.4915C89.5405 40.4915 91.0068 39.9141 92.1606 38.7833C93.3144 37.6525 93.8913 36.209 93.8913 34.5249C93.8913 32.8167 93.3144 31.3972 92.1606 30.2664C91.0068 29.1356 89.5405 28.5582 87.7857 28.5582C86.031 28.5582 84.5647 29.1356 83.4109 30.2664C82.2571 31.3972 81.6802 32.8407 81.6802 34.5249C81.6802 36.209 82.2571 37.6285 83.4109 38.7833Z" fill="#0091FF"/>
<path d="M106.102 34.3563C107.689 33.0571 109.996 32.4075 113.001 32.4075H118.89V31.4451C118.89 30.2903 118.578 29.4001 117.977 28.7986C117.376 28.1972 116.487 27.8844 115.333 27.8844C114.299 27.8844 113.458 28.125 112.809 28.6062C112.16 29.0873 111.751 29.7369 111.607 30.579H104.444C104.876 27.9325 106.03 25.8634 107.953 24.3718C109.876 22.8801 112.352 22.1343 115.429 22.1343C118.842 22.1343 121.438 22.9763 123.265 24.6845C125.092 26.3927 126.006 28.7986 126.006 31.9504V46.1452H121.078L119.972 43.7153C118.049 45.8084 115.501 46.867 112.304 46.867C109.588 46.867 107.497 46.2415 105.958 44.9663C104.444 43.7153 103.675 41.959 103.675 39.7455C103.723 37.4358 104.516 35.6314 106.102 34.3563ZM111.727 40.5635C112.208 40.9485 112.977 41.1409 114.011 41.1409C115.597 41.1409 116.799 40.8041 117.64 40.1064C118.482 39.4327 118.89 38.5185 118.89 37.3877V37.0268H113.867C111.944 37.0268 110.982 37.7005 110.982 39.0237C111.006 39.6733 111.246 40.1786 111.727 40.5635Z" fill="#0091FF"/>
<path d="M132.328 44.7498C130.549 43.3303 129.587 41.4056 129.443 38.9756H136.751C137.015 40.5876 138.217 41.4056 140.308 41.4056C142.135 41.4056 143.048 40.7801 143.048 39.529C143.048 38.9275 142.712 38.4463 142.039 38.1336C141.366 37.8208 140.236 37.4599 138.674 37.099C136.943 36.666 135.477 36.2329 134.323 35.7517C133.145 35.2705 132.159 34.5488 131.318 33.5864C130.477 32.624 130.068 31.3008 130.068 29.6648C130.068 28.2693 130.453 26.9942 131.198 25.8634C131.967 24.7327 133.073 23.8184 134.515 23.1448C135.981 22.4711 137.712 22.1343 139.755 22.1343C142.88 22.1343 145.308 22.832 147.015 24.2515C148.721 25.671 149.635 27.4995 149.803 29.761H142.592C142.496 29.0873 142.207 28.558 141.75 28.1972C141.27 27.8122 140.621 27.6197 139.755 27.6197C138.962 27.6197 138.361 27.7882 137.928 28.1009C137.496 28.4137 137.279 28.8227 137.279 29.3039C137.279 29.9054 137.616 30.3865 138.313 30.6993C138.986 31.0121 140.092 31.3248 141.63 31.6376C143.313 31.9744 144.731 32.3834 145.909 32.8406C147.087 33.3217 148.12 34.0676 148.986 35.1021C149.851 36.1367 150.284 37.5321 150.284 39.2643C150.284 40.6838 149.899 41.983 149.154 43.1378C148.385 44.2927 147.255 45.2069 145.765 45.8806C144.274 46.5542 142.448 46.8911 140.308 46.8911C136.751 46.867 134.106 46.1693 132.328 44.7498Z" fill="#0091FF"/>
<path d="M163.36 37.5082H161.029V46.1454H153.914V12.6792H161.029V31.1084H163.168L168.36 22.8562H176.389L169.274 33.9474L177.206 46.1454H168.865L163.36 37.5082Z" fill="#0091FF"/>
<path d="M183.24 45.2791C181.293 44.2205 179.778 42.7529 178.696 40.8763C177.615 38.9997 177.086 36.8825 177.086 34.5006C177.086 32.1669 177.615 30.0497 178.696 28.149C179.778 26.2724 181.268 24.7808 183.216 23.7222C185.139 22.6636 187.35 22.1343 189.802 22.1343C192.302 22.1343 194.513 22.6636 196.46 23.6981C198.407 24.7567 199.922 26.2003 201.003 28.0528C202.085 29.9054 202.614 31.9744 202.614 34.2601C202.614 35.2946 202.542 36.0645 202.422 36.5938H184.273C184.586 38.0854 185.235 39.2162 186.22 39.962C187.206 40.7319 188.48 41.0928 190.018 41.0928C192.206 41.0928 193.792 40.3711 194.802 38.9034H202.109C201.268 41.2853 199.753 43.186 197.614 44.6536C195.475 46.1212 192.903 46.8429 189.874 46.8429C187.422 46.867 185.187 46.3377 183.24 45.2791ZM195.331 31.9504C194.561 29.2317 192.759 27.8844 189.898 27.8844C188.6 27.8844 187.446 28.2453 186.509 28.9671C185.547 29.6888 184.874 30.6752 184.49 31.9504H195.331Z" fill="#0091FF"/>
<path d="M208.143 36.4255V29.0875H203.575V22.8562H208.359L209.417 17.1061H215.258V22.8562H222.325V29.0634H215.258V36.233C215.258 37.4119 215.546 38.3021 216.147 38.8795C216.748 39.457 217.637 39.7457 218.863 39.7457H222.373V46.1454H217.71C211.34 46.1454 208.143 42.8974 208.143 36.4255Z" fill="#0091FF"/>
<path d="M228.406 44.7257C226.7 43.4265 225.762 41.6462 225.594 39.3846H228.479C228.623 40.8522 229.32 41.983 230.522 42.7529C231.748 43.5468 233.406 43.9318 235.546 43.9318C237.541 43.9318 239.031 43.5709 240.017 42.8491C240.978 42.1273 241.483 41.189 241.483 39.9861C241.483 39.0478 241.194 38.302 240.618 37.7727C240.041 37.2434 239.32 36.8344 238.454 36.5938C237.589 36.3291 236.387 36.0645 234.824 35.7517C233.022 35.4149 231.555 35.054 230.402 34.645C229.248 34.26 228.262 33.6104 227.469 32.7443C226.652 31.8782 226.267 30.6993 226.267 29.2076C226.267 27.4032 227.036 25.9115 228.551 24.7326C230.065 23.5537 232.228 22.9523 235.017 22.9523C237.685 22.9523 239.8 23.5537 241.315 24.7567C242.829 25.9597 243.694 27.5476 243.863 29.5204H241.074C240.93 28.2934 240.329 27.3551 239.271 26.6574C238.214 25.9837 236.772 25.6228 234.921 25.6228C232.974 25.6228 231.531 25.9597 230.594 26.6333C229.656 27.307 229.176 28.149 229.176 29.1355C229.176 29.9775 229.464 30.6752 230.017 31.1564C230.57 31.6617 231.291 32.0466 232.156 32.2872C233.022 32.5518 234.175 32.8165 235.594 33.0811C237.469 33.442 239.007 33.827 240.185 34.2119C241.363 34.5969 242.348 35.2465 243.166 36.1607C243.983 37.0509 244.391 38.2779 244.391 39.8417C244.391 41.0928 244.055 42.2236 243.358 43.2341C242.685 44.2445 241.651 45.0626 240.281 45.6881C238.911 46.2896 237.276 46.6023 235.353 46.6023C232.445 46.6986 230.137 46.049 228.406 44.7257Z" fill="#0091FF"/>
<path d="M253.694 43.9559C252.252 42.4883 251.531 40.4674 251.531 37.8449V26.2003H246.459V23.5057H251.555L251.771 16.9857H254.415V23.5057H262.852V26.2003H254.415V37.7968C254.415 39.6253 254.896 40.9967 255.833 41.959C256.771 42.8973 258.141 43.3785 259.944 43.3785H263.045V46.1694H259.728C257.131 46.1453 255.136 45.4235 253.694 43.9559Z" fill="#0091FF"/>
<path d="M268.741 35.1021C270.208 33.8751 272.251 33.2736 274.823 33.2736H283.212V32.1428C283.212 30.0737 282.635 28.4858 281.506 27.3791C280.376 26.2724 278.765 25.719 276.746 25.719C274.991 25.719 273.549 26.0799 272.467 26.8257C271.362 27.5475 270.64 28.5821 270.28 29.8812H267.179C267.612 27.7881 268.669 26.104 270.376 24.877C272.083 23.6499 274.222 23.0244 276.818 23.0244C279.607 23.0244 281.866 23.8424 283.573 25.4544C285.279 27.0663 286.121 29.2076 286.121 31.9022V46.1933H283.741L283.38 42.5844C282.419 43.9317 281.145 44.9422 279.607 45.664C278.068 46.3858 276.434 46.7467 274.703 46.7467C272.203 46.7467 270.232 46.1452 268.741 44.9422C267.275 43.7393 266.53 42.0792 266.53 39.9861C266.53 37.941 267.251 36.3291 268.741 35.1021ZM270.881 42.8731C271.818 43.5949 273.116 43.9558 274.823 43.9558C276.506 43.9558 277.972 43.619 279.222 42.9694C280.472 42.3198 281.457 41.4296 282.155 40.2988C282.852 39.168 283.212 37.917 283.212 36.5456V35.7757H274.919C273.164 35.7757 271.818 36.1366 270.881 36.8824C269.943 37.6042 269.487 38.6147 269.487 39.8898C269.487 41.165 269.943 42.1754 270.881 42.8731Z" fill="#0091FF"/>
<path d="M296.649 43.9559C295.207 42.4883 294.486 40.4674 294.486 37.8449V26.2003H289.414V23.5057H294.51L294.726 16.9857H297.371V23.5057H305.808V26.2003H297.371V37.7968C297.371 39.6253 297.851 40.9967 298.789 41.959C299.726 42.8973 301.096 43.3785 302.899 43.3785H306V46.1694H302.683C300.111 46.1453 298.092 45.4235 296.649 43.9559Z" fill="#0091FF"/>
<path d="M16.4659 19.0786C11.9468 23.1205 6.37004 25.7911 0.408691 26.7775C0.408691 26.7534 0.408691 26.7294 0.432729 26.7053C0.480805 26.3685 0.552918 26.0317 0.625031 25.6948C0.673106 25.5024 0.697144 25.3099 0.745219 25.0934C0.84137 24.6844 0.937521 24.2754 1.03367 23.8904C1.05771 23.7942 1.08175 23.722 1.10578 23.6258C1.46635 22.2544 1.92307 20.9311 2.47593 19.656C2.52401 19.5598 2.54805 19.4876 2.57208 19.3914C2.74035 19.0305 2.88458 18.6696 3.07688 18.3087C3.17303 18.1162 3.26918 17.9238 3.36533 17.7554C3.50956 17.4666 3.65378 17.1539 3.82205 16.8652C4.08646 16.3599 4.35087 15.9028 4.63933 15.4216C4.6874 15.3254 4.73548 15.2532 4.80759 15.157C4.95182 14.9404 5.09604 14.7239 5.21623 14.5074C5.43257 14.1705 5.67295 13.8097 5.91333 13.4969C6.05755 13.3044 6.20178 13.112 6.32197 12.9435C6.80272 12.2939 7.30751 11.6684 7.8123 11.091C7.90846 10.9707 8.00461 10.8504 8.10076 10.7301L16.4659 19.0786Z" fill="#FF9400"/>
<path d="M10.6968 8.08391C10.7929 7.96362 10.9131 7.86738 11.0333 7.7952C11.7064 7.19373 12.4275 6.64037 13.1246 6.13513C15.3361 4.49911 17.7158 3.19992 20.2157 2.2135C20.4561 2.11726 20.6965 2.02103 20.9368 1.92479C21.1772 1.82855 21.4416 1.75638 21.682 1.66014C22.4031 1.41955 23.1483 1.20302 23.8694 1.01055C24.1579 0.938368 24.4463 0.866191 24.7348 0.794014C25.1194 0.721837 25.504 0.6256 25.8886 0.553423C26.1771 0.505305 26.4655 0.433128 26.754 0.38501C25.7684 6.35166 23.1002 11.9334 19.0619 16.4565L10.6968 8.08391Z" fill="#FF9400"/>
<path d="M19.0859 21.6771C24.7588 27.3551 24.7588 36.5456 19.0859 42.2236L8.10071 53.2426C8.00456 53.1223 7.88437 53.002 7.78822 52.8817C3.94218 48.4308 1.29804 42.9213 0.360566 36.8343C0.144226 35.487 0.0240377 34.1397 0 32.7924C0 32.5278 0 32.2391 0 31.9744C0 31.6857 0 31.421 0 31.1564C0 30.9639 0.0240377 30.7715 0.0240377 30.579C7.11516 29.5685 13.7736 26.4649 19.0859 21.6771Z" fill="#0091FF"/>
<path d="M42.1862 44.8221C37.4026 50.1391 34.3018 56.8035 33.3403 63.8768C33.2201 63.8768 33.1239 63.8768 33.0037 63.8768C32.6432 63.9009 32.2826 63.9009 31.9221 63.9009C31.5615 63.9009 31.225 63.9009 30.8644 63.8768C30.4317 63.8528 30.0231 63.8287 29.5904 63.8047C29.1096 63.7565 28.6289 63.7325 28.1241 63.6603C27.9558 63.6362 27.7876 63.6122 27.6193 63.6122C27.3789 63.5881 27.1385 63.54 26.8982 63.5159C26.6097 63.4678 26.2972 63.4197 26.0088 63.3716C25.8165 63.3235 25.6242 63.2994 25.4319 63.2513C25.2155 63.2032 24.9992 63.1551 24.7829 63.1069C24.5425 63.0588 24.3261 63.0107 24.0858 62.9385C23.8935 62.8904 23.7012 62.8423 23.5089 62.7942C23.3887 62.7461 23.2444 62.722 23.1243 62.6979C22.8598 62.6258 22.6195 62.5536 22.3791 62.4814C21.8743 62.313 21.3935 62.1686 20.8887 61.9762C20.6484 61.8799 20.408 61.7837 20.1676 61.6875C18.1004 60.8694 16.0812 59.8349 14.2063 58.5598C13.9418 58.3673 13.6774 58.1989 13.389 58.0064C12.5477 57.429 11.7544 56.7794 10.9852 56.1058C10.865 56.0095 10.7448 55.9133 10.6487 55.817L21.682 44.8221C27.3549 39.1441 36.5373 39.1441 42.1862 44.8221Z" fill="#0091FF"/>
<path d="M21.6821 19.0788C26.4656 13.7618 29.5665 7.09742 30.528 0.0240591C30.5761 0.0240591 30.6242 0.0240591 30.6963 0.0240591C30.7443 0.0240591 30.7924 0.0240591 30.8645 0.0240591C31.0088 0.0240591 31.129 0 31.2732 0C31.5136 0 31.7299 0 31.9703 0C32.3068 0 32.6674 1.79254e-09 33.0039 0.0240591C33.2202 0.0240591 33.4125 0.0481181 33.6289 0.0481181C33.7971 0.0481181 33.9654 0.0721772 34.1337 0.0721772C34.374 0.0962363 34.5904 0.0962363 34.8067 0.120295C34.9509 0.120295 35.0952 0.144354 35.2394 0.168413C35.4557 0.192473 35.6721 0.216532 35.8644 0.240591C37.3066 0.409004 38.7249 0.697713 40.1191 1.0586C40.3114 1.10672 40.5037 1.15484 40.696 1.22701C40.9604 1.29919 41.2007 1.37137 41.4411 1.44354C41.7055 1.51572 41.9459 1.61196 42.1863 1.68413C42.4267 1.78037 42.6911 1.85255 42.9315 1.94878C43.1959 2.04502 43.4843 2.16532 43.7728 2.26155C47.1621 3.5848 50.3832 5.53358 53.2436 8.08385L53.2196 8.10791L42.2103 19.0788C36.5374 24.7568 27.355 24.7568 21.6821 19.0788Z" fill="#0091FF"/>
<path d="M53.1954 55.8172C51.1281 57.6939 48.8686 59.2096 46.4888 60.4366C46.2725 60.5569 46.0321 60.6772 45.7918 60.7734C45.5514 60.8937 45.335 60.9899 45.0947 61.1102C44.3735 61.4471 43.6764 61.7358 42.9313 62.0004C42.6909 62.0967 42.4265 62.1688 42.1861 62.2651C41.4409 62.5297 40.6958 62.7463 39.9266 62.9387C39.6621 62.9868 39.4218 63.059 39.1573 63.1312C38.6766 63.2274 38.2199 63.3237 37.7391 63.4199C37.5468 63.468 37.3545 63.5161 37.1382 63.5402C38.1237 57.5736 40.7919 51.9919 44.8062 47.4688L53.1954 55.8172Z" fill="#FF9400"/>
<path d="M47.4023 44.8221C51.9214 40.8042 57.4982 38.1096 63.4595 37.1472C63.4355 37.3156 63.4115 37.5081 63.3634 37.7006C63.3153 37.9412 63.2913 38.1818 63.2192 38.3983C63.147 38.8073 63.0509 39.1922 62.9547 39.6012C62.9067 39.8178 62.8586 40.0343 62.7865 40.2508C62.7384 40.4192 62.6903 40.5636 62.6423 40.732C62.498 41.2373 62.3538 41.7184 62.1855 42.1996C62.0894 42.4402 62.0173 42.7049 61.9211 42.9454C61.825 43.186 61.7288 43.4266 61.6327 43.6672C60.2866 47.1077 58.3395 50.3316 55.7675 53.2187L55.7434 53.1946L47.4023 44.8221Z" fill="#FF9400"/>
<path d="M63.8442 33.37C56.753 34.3564 50.0946 37.4359 44.7823 42.2237C39.1094 36.5458 39.1094 27.3552 44.7823 21.7013L55.7915 10.6582C58.1713 13.3047 60.0222 16.288 61.3202 19.4157C61.4164 19.6563 61.5365 19.9209 61.6327 20.1615C61.825 20.6668 62.0173 21.172 62.1856 21.6773C62.4259 22.399 62.6423 23.1208 62.8346 23.8426C62.9067 24.1794 63.0028 24.5162 63.075 24.8531C63.1951 25.3102 63.2673 25.7914 63.3634 26.2485C63.4596 26.7778 63.5317 27.3071 63.6038 27.8604C63.6759 28.3897 63.724 28.9431 63.772 29.4724C63.8201 30.0017 63.8442 30.5551 63.8442 31.1084C63.8922 31.8783 63.8922 32.6241 63.8442 33.37Z" fill="#0091FF"/>
</svg>
